<svg width="16" height="16" viewBox="0 0 16 16" fill="none" xmlns="http://www.w3.org/2000/svg">
<rect width="16" height="16" rx="8" fill="#589F39"/>
<path fill-rule="evenodd" clip-rule="evenodd" d="M7.99982 4.08838C7.8671 4.08838 7.7376 4.12922 7.62889 4.20535C7.52193 4.28026 7.4402 4.38578 7.39438 4.50796L6.66239 6.35126L4.70011 6.47765C4.09145 6.51717 3.88782 7.27609 4.32742 7.6416L4.32771 7.64185L5.83658 8.90035L5.38718 10.6713C5.37768 10.7086 5.37128 10.7457 5.36779 10.7824C5.31538 11.3328 5.91561 11.7937 6.44584 11.4566L6.44618 11.4564L7.99976 10.4726L9.67309 11.535L9.674 11.5356C10.1955 11.8645 10.7889 11.3631 10.65 10.8145L10.1631 8.90033L11.6719 7.64185L11.6722 7.64161C12.1118 7.2761 11.908 6.51716 11.2993 6.47763L9.33724 6.35126L8.60524 4.50794C8.55943 4.38577 8.47769 4.28026 8.37074 4.20535C8.26203 4.12922 8.13253 4.08838 7.99982 4.08838Z" fill="#CFEAC3"/>
</svg>
