<svg xmlns="http://www.w3.org/2000/svg" width="13" height="16" viewBox="0 0 13 16">
    <defs>
        <linearGradient id="0reg2x4c1a" x1="50%" x2="50%" y1="0%" y2="100%">
            <stop offset="0%" stop-color="#FF7300"/>
            <stop offset="100%" stop-color="#FE9900"/>
        </linearGradient>
    </defs>
    <g fill="none" fill-rule="evenodd">
        <g>
            <g>
                <g>
                    <g>
                        <g>
                            <path fill="url(#0reg2x4c1a)" d="M1.053 2.057L6.4 0l5.347 2.057C12.38 2.3 12.8 2.91 12.8 3.59v6.256c-1.125 2.38-3.258 4.43-6.4 6.154-3.234-1.918-5.368-3.97-6.4-6.154V3.59c0-.68.419-1.29 1.053-1.533z" transform="translate(-559 -1737) translate(155 1681) translate(0 44) translate(392) translate(12 12)"/>
                            <path fill="#FFF" d="M5.477 11.2L2.4 8.051 3.426 7.002 5.374 8.997 9.273 4.8 10.4 5.849z" transform="translate(-559 -1737) translate(155 1681) translate(0 44) translate(392) translate(12 12)"/>
                        </g>
                    </g>
                </g>
            </g>
        </g>
    </g>
</svg>
