<svg width="63" height="16" xmlns="http://www.w3.org/2000/svg">
    <defs>
        <linearGradient x1="0%" y1="51.491%" x2="100%" y2="48.797%" id="a">
            <stop stop-color="#E64B00" offset="0%"/>
            <stop stop-color="#FF7300" stop-opacity=".9" offset="27.844%"/>
            <stop stop-color="#FE9900" offset="100%"/>
        </linearGradient>
        <linearGradient x1="85.117%" y1="67.591%" x2="50.737%" y2="21.361%" id="b">
            <stop stop-color="#E64B00" offset="0%"/>
            <stop stop-color="#FF7300" stop-opacity=".9" offset="46.113%"/>
            <stop stop-color="#FE9900" offset="74.924%"/>
            <stop stop-color="#FEA215" offset="100%"/>
        </linearGradient>
    </defs>
    <g fill="none" fill-rule="evenodd">
        <rect fill-opacity=".9" fill="url(#a)" width="63" height="16" rx="2"/>
        <text font-family="Helvetica-Bold, Helvetica" font-size="10" font-weight="bold" fill="#FFF">
                        <tspan x="17" y="12">ĐỐI TÁC</tspan>
                    </text>
        <path d="M4 2h9v11H4z"/>
        <path d="M5.065 3.792 8.5 2.5l3.435 1.292c.64.24 1.065.853 1.065 1.538v3.94c-.79 1.635-2.29 3.045-4.5 4.23-2.274-1.319-3.774-2.73-4.5-4.23V5.33c0-.685.424-1.297 1.065-1.538z" fill="#FFF"/>
        <path fill="url(#b)" d="M3.922 7.7 1.72 5.535l.734-.721L3.85 6.185 6.64 3.3l.807.721z" transform="translate(4 2.5)"/>
    </g>
</svg>
